<svg xmlns="http://www.w3.org/2000/svg" viewBox="0 0 120 120" fill="none">
  <!-- Teal A shape -->
  <path d="M60 8 L98 95 H78 L60 50 L42 95 H22 Z" fill="#1B6B5C" opacity="0.95"/>
  <!-- Lighter teal inner A -->
  <path d="M60 22 L84 88 H72 L60 50 L48 88 H36 Z" fill="#2A9D8F" opacity="0.6"/>
  <!-- Dog silhouette (white) -->
  <ellipse cx="60" cy="52" rx="14" ry="11" fill="white" opacity="0.95"/>
  <!-- Dog head -->
  <circle cx="60" cy="44" r="8" fill="white" opacity="0.95"/>
  <!-- Dog ears -->
  <ellipse cx="53" cy="40" rx="4" ry="6" fill="white" opacity="0.85" transform="rotate(-15 53 40)"/>
  <ellipse cx="67" cy="40" rx="4" ry="6" fill="white" opacity="0.85" transform="rotate(15 67 40)"/>
  <!-- Dog eye -->
  <circle cx="58" cy="43" r="1.5" fill="#1B6B5C"/>
  <circle cx="63" cy="43" r="1.5" fill="#1B6B5C"/>
  <!-- Dog nose -->
  <ellipse cx="60" cy="47" rx="2" ry="1.2" fill="#1B6B5C" opacity="0.7"/>
  <!-- Cat smaller silhouette -->
  <circle cx="60" cy="62" r="7" fill="white" opacity="0.8"/>
  <!-- Cat ears -->
  <polygon points="54,57 52,51 57,55" fill="white" opacity="0.8"/>
  <polygon points="66,57 68,51 63,55" fill="white" opacity="0.8"/>
  <!-- Gold heart -->
  <path d="M60 73 C60 73 50 66 50 60 C50 56.5 53 54 56 54 C58 54 60 56 60 56 C60 56 62 54 64 54 C67 54 70 56.5 70 60 C70 66 60 73 60 73Z" fill="#C9A84C" opacity="0.9" transform="scale(0.6) translate(40 48)"/>
  <!-- Simplified gold heart accent -->
  <path d="M60 78 C58 76 54 73 54 70 C54 68 56 67 58 67 C59 67 60 68 60 68 C60 68 61 67 62 67 C64 67 66 68 66 70 C66 73 62 76 60 78Z" fill="#C9A84C"/>
</svg>
